<svg width="474" height="155" viewBox="0 0 474 155" fill="none" xmlns="http://www.w3.org/2000/svg">
<g clip-path="url(#clip0_4_53)">
<path d="M90 134C90 123.757 87.9825 113.614 84.0626 104.151C80.1427 94.6873 74.3973 86.0886 67.1543 78.8457C59.9114 71.6027 51.3127 65.8573 41.8493 61.9374C32.3859 58.0175 22.2431 56 12 56C12 56 11.1999 63.5836 12 70.4247C12.645 75.9396 12 81 12 81C41.2711 81 65 104.729 65 134H90Z" fill="#064E3B"/>
<path fill-rule="evenodd" clip-rule="evenodd" d="M84.0626 50.8493C87.9824 41.3859 89.9999 31.2431 89.9999 21H77.4999H64.9999C64.9999 50.2711 41.271 74 11.9999 74L8.58585 80.85L11.9999 99C22.2431 99 32.3859 96.9825 41.8493 93.0626C51.3126 89.1427 59.9113 83.3973 67.1543 76.1543C74.3972 68.9114 80.1427 60.3127 84.0626 50.8493Z" fill="#059669"/>
<path fill-rule="evenodd" clip-rule="evenodd" d="M141.395 84.023L144 74C114.729 74 91 50.2711 91 21H78.5H66C66 31.2431 68.0175 41.3859 71.9374 50.8493C75.8573 60.3127 81.6027 68.9114 88.8457 76.1543C96.0887 83.3973 104.687 89.1427 114.151 93.0626C123.614 96.9825 133.757 99 144 99L141.395 84.023Z" fill="#064E3B"/>
<path fill-rule="evenodd" clip-rule="evenodd" d="M131.216 82.552C109.862 87.8407 93.6156 106.077 91.2873 128.449C88.9916 131.605 67.8625 133.49 66.1899 128.563C66.7756 120.181 68.7129 111.936 71.9376 104.151C75.8575 94.6871 81.6029 86.0885 88.8459 78.8455C96.0888 71.6025 104.687 65.8571 114.151 61.9372C118.479 60.1444 122.949 58.7496 127.506 57.7637C127.506 57.7637 135.295 63.1607 136.417 69.2661C137.45 74.8847 131.216 82.552 131.216 82.552Z" fill="#059669"/>
<path fill-rule="evenodd" clip-rule="evenodd" d="M156.494 77C156.367 67.0972 154.355 57.306 150.563 48.1507C146.643 38.6873 140.897 30.0886 133.654 22.8457C126.411 15.6027 117.813 9.85727 108.349 5.9374C98.8859 2.01753 88.7431 8.95481e-07 78.5 0C68.2569 -8.95481e-07 58.1141 2.01753 48.6507 5.9374C39.1873 9.85726 30.5886 15.6027 23.3457 22.8457C16.1027 30.0886 10.3573 38.6873 6.4374 48.1507C2.64514 57.306 0.633373 67.0972 0.50641 77H0.5C0.5 77.1667 0.500534 77.3334 0.501603 77.5C0.500534 77.6666 0.5 77.8333 0.5 78H0.50641C0.633373 87.9027 2.64514 97.694 6.4374 106.849C10.3573 116.313 16.1027 124.911 23.3457 132.154C30.5886 139.397 39.1873 145.143 48.6507 149.063C58.1141 152.982 68.2569 155 78.5 155C88.7431 155 98.8859 152.982 108.349 149.063C117.813 145.143 126.411 139.397 133.654 132.154C140.897 124.911 146.643 116.313 150.563 106.849C154.355 97.694 156.367 87.9027 156.494 78H156.5C156.5 77.8333 156.499 77.6666 156.498 77.5C156.499 77.3334 156.5 77.1667 156.5 77H156.494ZM131.498 77.4999C131.229 48.4591 107.604 25 78.5 25C49.3958 25 25.7707 48.4592 25.5023 77.5C25.7707 106.541 49.3958 130 78.5 130C107.604 130 131.229 106.541 131.498 77.4999Z" fill="#059669"/>
<path d="M204.452 112.248C200.74 112.248 197.172 111.672 193.748 110.52C190.356 109.336 187.38 107.656 184.82 105.48C182.26 103.272 180.42 100.632 179.3 97.5599L190.292 93.528C190.74 94.808 191.652 95.9759 193.028 97.0319C194.404 98.0879 196.084 98.9359 198.068 99.5759C200.052 100.216 202.18 100.536 204.452 100.536C206.788 100.536 208.964 100.184 210.98 99.48C213.028 98.744 214.676 97.736 215.924 96.456C217.172 95.144 217.796 93.624 217.796 91.896C217.796 90.136 217.14 88.6959 215.828 87.5759C214.516 86.4239 212.836 85.5119 210.788 84.8399C208.74 84.1679 206.628 83.656 204.452 83.304C199.684 82.568 195.412 81.432 191.636 79.896C187.86 78.36 184.868 76.232 182.66 73.512C180.484 70.792 179.396 67.272 179.396 62.952C179.396 58.8879 180.564 55.336 182.9 52.296C185.236 49.256 188.308 46.888 192.116 45.192C195.924 43.496 200.036 42.6479 204.452 42.6479C208.132 42.6479 211.684 43.2239 215.108 44.3759C218.532 45.5279 221.524 47.208 224.084 49.416C226.676 51.624 228.532 54.2799 229.652 57.3839L218.612 61.368C218.164 60.088 217.252 58.9199 215.876 57.8639C214.5 56.8079 212.82 55.976 210.836 55.368C208.852 54.728 206.724 54.408 204.452 54.408C202.18 54.376 200.02 54.744 197.972 55.512C195.956 56.248 194.308 57.2559 193.028 58.5359C191.748 59.8159 191.108 61.288 191.108 62.952C191.108 65.096 191.7 66.712 192.884 67.8C194.1 68.888 195.716 69.6879 197.732 70.1999C199.748 70.6799 201.988 71.1279 204.452 71.5439C208.932 72.2479 213.076 73.432 216.884 75.096C220.692 76.76 223.748 78.9839 226.052 81.7679C228.356 84.5199 229.508 87.896 229.508 91.896C229.508 95.96 228.356 99.5279 226.052 102.6C223.748 105.64 220.692 108.008 216.884 109.704C213.076 111.4 208.932 112.248 204.452 112.248ZM270.001 63H282.433L256.177 135H243.745L252.433 111L235.153 63H247.969L258.289 94.968L270.001 63ZM334.103 80.664V111H322.391V83.736C322.391 81.848 321.927 80.1359 320.999 78.5999C320.071 77.0319 318.823 75.7999 317.255 74.9039C315.719 73.9759 314.007 73.512 312.119 73.512C310.231 73.512 308.503 73.9759 306.935 74.9039C305.399 75.7999 304.167 77.0319 303.239 78.5999C302.343 80.1359 301.895 81.848 301.895 83.736V111H290.183L290.135 63H301.847L301.895 67.272C303.527 65.544 305.479 64.184 307.751 63.192C310.023 62.168 312.471 61.6559 315.095 61.6559C318.583 61.6559 321.767 62.52 324.647 64.248C327.527 65.944 329.815 68.2319 331.511 71.1119C333.239 73.9599 334.103 77.144 334.103 80.664ZM372.489 96.552L383.049 102.264C380.841 105.272 378.073 107.688 374.745 109.512C371.417 111.336 367.785 112.248 363.849 112.248C359.433 112.248 355.401 111.112 351.753 108.84C348.137 106.568 345.241 103.528 343.065 99.72C340.921 95.88 339.849 91.64 339.849 87C339.849 83.48 340.473 80.2 341.721 77.16C342.969 74.088 344.681 71.4 346.857 69.096C349.065 66.76 351.625 64.936 354.537 63.624C357.449 62.312 360.553 61.6559 363.849 61.6559C367.785 61.6559 371.417 62.5679 374.745 64.3919C378.073 66.2159 380.841 68.664 383.049 71.736L372.489 77.4C371.369 76.12 370.041 75.128 368.505 74.424C367.001 73.72 365.449 73.3679 363.849 73.3679C361.545 73.3679 359.465 74.008 357.609 75.288C355.753 76.536 354.281 78.1999 353.193 80.2799C352.105 82.3279 351.561 84.568 351.561 87C351.561 89.4 352.105 91.64 353.193 93.72C354.281 95.768 355.753 97.416 357.609 98.664C359.465 99.912 361.545 100.536 363.849 100.536C365.513 100.536 367.097 100.184 368.601 99.48C370.105 98.744 371.401 97.768 372.489 96.552ZM391.714 111L391.666 63H403.378L403.426 67.272C405.058 65.544 407.01 64.184 409.282 63.192C411.554 62.168 414.002 61.6559 416.626 61.6559C418.386 61.6559 420.146 61.912 421.906 62.424L417.298 74.232C416.082 73.752 414.866 73.512 413.65 73.512C411.762 73.512 410.034 73.9759 408.466 74.9039C406.93 75.7999 405.698 77.0319 404.77 78.5999C403.874 80.1359 403.426 81.848 403.426 83.736V111H391.714ZM446.161 112.248C441.745 112.248 437.713 111.112 434.065 108.84C430.449 106.568 427.553 103.528 425.377 99.72C423.233 95.88 422.161 91.64 422.161 87C422.161 83.48 422.785 80.2 424.033 77.16C425.281 74.088 426.993 71.4 429.169 69.096C431.377 66.76 433.937 64.936 436.849 63.624C439.761 62.312 442.865 61.6559 446.161 61.6559C450.577 61.6559 454.593 62.792 458.209 65.064C461.857 67.336 464.753 70.392 466.897 74.232C469.073 78.072 470.161 82.328 470.161 87C470.161 90.488 469.537 93.752 468.289 96.792C467.041 99.832 465.313 102.52 463.105 104.856C460.929 107.16 458.385 108.968 455.473 110.28C452.593 111.592 449.489 112.248 446.161 112.248ZM446.161 100.536C448.497 100.536 450.593 99.912 452.449 98.664C454.305 97.416 455.761 95.768 456.817 93.72C457.905 91.672 458.449 89.432 458.449 87C458.449 84.504 457.889 82.2319 456.769 80.1839C455.681 78.1039 454.193 76.4559 452.305 75.2399C450.449 73.9919 448.401 73.3679 446.161 73.3679C443.857 73.3679 441.777 73.9919 439.921 75.2399C438.065 76.4879 436.593 78.152 435.505 80.232C434.417 82.312 433.873 84.568 433.873 87C433.873 89.528 434.433 91.8159 435.553 93.8639C436.673 95.9119 438.161 97.544 440.017 98.76C441.905 99.944 443.953 100.536 446.161 100.536Z" fill="#059669"/>
</g>
<defs>
<clipPath id="clip0_4_53">
<rect width="473" height="155" fill="white" transform="translate(0.5)"/>
</clipPath>
</defs>
</svg>
