<svg width="156" height="155" viewBox="0 0 156 155" fill="none" xmlns="http://www.w3.org/2000/svg">
<g clip-path="url(#clip0_5_76)">
<path d="M89.5 134C89.5 123.757 87.4825 113.614 83.5626 104.151C79.6427 94.6873 73.8973 86.0886 66.6543 78.8457C59.4114 71.6027 50.8127 65.8573 41.3493 61.9374C31.8859 58.0175 21.7431 56 11.5 56C11.5 56 10.6999 63.5836 11.5 70.4247C12.145 75.9396 11.5 81 11.5 81C40.7711 81 64.5 104.729 64.5 134H89.5Z" fill="#064E3B"/>
<path fill-rule="evenodd" clip-rule="evenodd" d="M83.5626 50.8493C87.4824 41.3859 89.4999 31.2431 89.4999 21H76.9999H64.4999C64.4999 50.2711 40.771 74 11.4999 74L8.08585 80.85L11.4999 99C21.7431 99 31.8859 96.9825 41.3493 93.0626C50.8126 89.1427 59.4113 83.3973 66.6543 76.1543C73.8972 68.9114 79.6427 60.3127 83.5626 50.8493Z" fill="#059669"/>
<path fill-rule="evenodd" clip-rule="evenodd" d="M140.895 84.023L143.5 74C114.229 74 90.5 50.2711 90.5 21H78H65.5C65.5 31.2431 67.5175 41.3859 71.4374 50.8493C75.3573 60.3127 81.1027 68.9114 88.3457 76.1543C95.5887 83.3973 104.187 89.1427 113.651 93.0626C123.114 96.9825 133.257 99 143.5 99L140.895 84.023Z" fill="#064E3B"/>
<path fill-rule="evenodd" clip-rule="evenodd" d="M130.716 82.552C109.362 87.8407 93.1156 106.077 90.7873 128.449C88.4916 131.605 67.3625 133.49 65.6899 128.563C66.2756 120.181 68.2129 111.936 71.4376 104.151C75.3575 94.6871 81.1029 86.0885 88.3459 78.8455C95.5888 71.6025 104.187 65.8571 113.651 61.9372C117.979 60.1444 122.449 58.7496 127.006 57.7637C127.006 57.7637 134.795 63.1607 135.917 69.2661C136.95 74.8847 130.716 82.552 130.716 82.552Z" fill="#059669"/>
<path fill-rule="evenodd" clip-rule="evenodd" d="M155.994 77C155.867 67.0972 153.855 57.306 150.063 48.1507C146.143 38.6873 140.397 30.0886 133.154 22.8457C125.911 15.6027 117.313 9.85727 107.849 5.9374C98.3859 2.01753 88.2431 8.95481e-07 78 0C67.7569 -8.95481e-07 57.6141 2.01753 48.1507 5.9374C38.6873 9.85726 30.0886 15.6027 22.8457 22.8457C15.6027 30.0886 9.85726 38.6873 5.9374 48.1507C2.14514 57.306 0.133373 67.0972 0.00641032 77H0C1.45733e-08 77.1667 0.00053436 77.3334 0.00160254 77.5C0.00053436 77.6666 1.45733e-08 77.8333 0 78H0.00641032C0.133373 87.9027 2.14514 97.694 5.9374 106.849C9.85726 116.313 15.6027 124.911 22.8457 132.154C30.0886 139.397 38.6873 145.143 48.1507 149.063C57.6141 152.982 67.7569 155 78 155C88.2431 155 98.3859 152.982 107.849 149.063C117.313 145.143 125.911 139.397 133.154 132.154C140.397 124.911 146.143 116.313 150.063 106.849C153.855 97.694 155.867 87.9027 155.994 78H156C156 77.8333 155.999 77.6666 155.998 77.5C155.999 77.3334 156 77.1667 156 77H155.994ZM130.998 77.4999C130.729 48.4591 107.104 25 78 25C48.8958 25 25.2707 48.4592 25.0023 77.5C25.2707 106.541 48.8958 130 78 130C107.104 130 130.729 106.541 130.998 77.4999Z" fill="#059669"/>
</g>
<defs>
<clipPath id="clip0_5_76">
<rect width="156" height="155" fill="white"/>
</clipPath>
</defs>
</svg>
