<svg width="475" height="156" viewBox="0 0 475 156" fill="none" xmlns="http://www.w3.org/2000/svg">
<path d="M90.5 134.5C90.5 124.257 88.4825 114.114 84.5626 104.651C80.6427 95.1873 74.8973 86.5886 67.6543 79.3457C60.4114 72.1027 51.8127 66.3573 42.3493 62.4374C32.8859 58.5175 22.7431 56.5 12.5 56.5C12.5 56.5 11.6999 64.0836 12.5 70.9247C13.145 76.4396 12.5 81.5 12.5 81.5C41.7711 81.5 65.5 105.229 65.5 134.5H90.5Z" fill="#059669"/>
<path fill-rule="evenodd" clip-rule="evenodd" d="M84.5626 51.3493C88.4824 41.8859 90.4999 31.7431 90.4999 21.5H77.9999H65.4999C65.4999 50.7711 41.771 74.5 12.4999 74.5L9.08585 81.35L12.4999 99.5C22.7431 99.5 32.8859 97.4825 42.3493 93.5626C51.8126 89.6427 60.4113 83.8973 67.6543 76.6543C74.8972 69.4114 80.6427 60.8127 84.5626 51.3493Z" fill="#6EE7B7"/>
<path fill-rule="evenodd" clip-rule="evenodd" d="M141.895 84.523L144.5 74.5C115.229 74.5 91.5 50.7711 91.5 21.5H79H66.5C66.5 31.7431 68.5175 41.8859 72.4374 51.3493C76.3573 60.8127 82.1027 69.4114 89.3457 76.6543C96.5887 83.8973 105.187 89.6427 114.651 93.5626C124.114 97.4825 134.257 99.5 144.5 99.5L141.895 84.523Z" fill="#059669"/>
<path fill-rule="evenodd" clip-rule="evenodd" d="M131.716 83.0522C110.362 88.341 94.1156 106.577 91.7873 128.95C89.4916 132.105 68.3625 133.99 66.6899 129.063C67.2756 120.681 69.2129 112.436 72.4376 104.651C76.3575 95.1874 82.1029 86.5887 89.3459 79.3458C96.5888 72.1028 105.187 66.3574 114.651 62.4375C118.979 60.6447 123.449 59.2498 128.006 58.2639C128.006 58.2639 135.795 63.661 136.917 69.7663C137.95 75.385 131.716 83.0522 131.716 83.0522Z" fill="#6EE7B7"/>
<path fill-rule="evenodd" clip-rule="evenodd" d="M156.994 77.5C156.867 67.5972 154.855 57.806 151.063 48.6507C147.143 39.1873 141.397 30.5886 134.154 23.3457C126.911 16.1027 118.313 10.3573 108.849 6.4374C99.3859 2.51753 89.2431 0.500001 79 0.5C68.7569 0.499999 58.6141 2.51753 49.1507 6.4374C39.6873 10.3573 31.0886 16.1027 23.8457 23.3457C16.6027 30.5886 10.8573 39.1873 6.9374 48.6507C3.14514 57.806 1.13337 67.5972 1.00641 77.5H1C1 77.6667 1.00053 77.8334 1.0016 78C1.00053 78.1666 1 78.3333 1 78.5H1.00641C1.13337 88.4027 3.14514 98.194 6.9374 107.349C10.8573 116.813 16.6027 125.411 23.8457 132.654C31.0886 139.897 39.6873 145.643 49.1507 149.563C58.6141 153.482 68.7569 155.5 79 155.5C89.2431 155.5 99.3859 153.482 108.849 149.563C118.313 145.643 126.911 139.897 134.154 132.654C141.397 125.411 147.143 116.813 151.063 107.349C154.855 98.194 156.867 88.4027 156.994 78.5H157C157 78.3333 156.999 78.1666 156.998 78C156.999 77.8334 157 77.6667 157 77.5H156.994ZM131.998 77.9999C131.729 48.9591 108.104 25.5 79 25.5C49.8958 25.5 26.2707 48.9592 26.0023 78C26.2707 107.041 49.8958 130.5 79 130.5C108.104 130.5 131.729 107.041 131.998 77.9999Z" fill="#6EE7B7"/>
<path d="M204.952 112.748C201.24 112.748 197.672 112.172 194.248 111.02C190.856 109.836 187.88 108.156 185.32 105.98C182.76 103.772 180.92 101.132 179.8 98.0599L190.792 94.028C191.24 95.308 192.152 96.4759 193.528 97.5319C194.904 98.5879 196.584 99.4359 198.568 100.076C200.552 100.716 202.68 101.036 204.952 101.036C207.288 101.036 209.464 100.684 211.48 99.98C213.528 99.244 215.176 98.236 216.424 96.956C217.672 95.644 218.296 94.124 218.296 92.396C218.296 90.636 217.64 89.1959 216.328 88.0759C215.016 86.9239 213.336 86.0119 211.288 85.3399C209.24 84.6679 207.128 84.156 204.952 83.804C200.184 83.068 195.912 81.932 192.136 80.396C188.36 78.86 185.368 76.732 183.16 74.012C180.984 71.292 179.896 67.772 179.896 63.452C179.896 59.3879 181.064 55.836 183.4 52.796C185.736 49.756 188.808 47.388 192.616 45.692C196.424 43.996 200.536 43.1479 204.952 43.1479C208.632 43.1479 212.184 43.7239 215.608 44.8759C219.032 46.0279 222.024 47.708 224.584 49.916C227.176 52.124 229.032 54.7799 230.152 57.8839L219.112 61.868C218.664 60.588 217.752 59.4199 216.376 58.3639C215 57.3079 213.32 56.476 211.336 55.868C209.352 55.228 207.224 54.908 204.952 54.908C202.68 54.876 200.52 55.244 198.472 56.012C196.456 56.748 194.808 57.7559 193.528 59.0359C192.248 60.3159 191.608 61.788 191.608 63.452C191.608 65.596 192.2 67.212 193.384 68.3C194.6 69.388 196.216 70.1879 198.232 70.6999C200.248 71.1799 202.488 71.6279 204.952 72.0439C209.432 72.7479 213.576 73.932 217.384 75.596C221.192 77.26 224.248 79.4839 226.552 82.2679C228.856 85.0199 230.008 88.396 230.008 92.396C230.008 96.46 228.856 100.028 226.552 103.1C224.248 106.14 221.192 108.508 217.384 110.204C213.576 111.9 209.432 112.748 204.952 112.748ZM270.501 63.5H282.933L256.677 135.5H244.245L252.933 111.5L235.653 63.5H248.469L258.789 95.468L270.501 63.5ZM334.603 81.164V111.5H322.891V84.236C322.891 82.348 322.427 80.6359 321.499 79.0999C320.571 77.5319 319.323 76.2999 317.755 75.4039C316.219 74.4759 314.507 74.012 312.619 74.012C310.731 74.012 309.003 74.4759 307.435 75.4039C305.899 76.2999 304.667 77.5319 303.739 79.0999C302.843 80.6359 302.395 82.348 302.395 84.236V111.5H290.683L290.635 63.5H302.347L302.395 67.772C304.027 66.044 305.979 64.684 308.251 63.692C310.523 62.668 312.971 62.1559 315.595 62.1559C319.083 62.1559 322.267 63.02 325.147 64.748C328.027 66.444 330.315 68.7319 332.011 71.6119C333.739 74.4599 334.603 77.644 334.603 81.164ZM372.989 97.052L383.549 102.764C381.341 105.772 378.573 108.188 375.245 110.012C371.917 111.836 368.285 112.748 364.349 112.748C359.933 112.748 355.901 111.612 352.253 109.34C348.637 107.068 345.741 104.028 343.565 100.22C341.421 96.38 340.349 92.14 340.349 87.5C340.349 83.98 340.973 80.7 342.221 77.66C343.469 74.588 345.181 71.9 347.357 69.596C349.565 67.26 352.125 65.436 355.037 64.124C357.949 62.812 361.053 62.1559 364.349 62.1559C368.285 62.1559 371.917 63.0679 375.245 64.8919C378.573 66.7159 381.341 69.164 383.549 72.236L372.989 77.9C371.869 76.62 370.541 75.628 369.005 74.924C367.501 74.22 365.949 73.8679 364.349 73.8679C362.045 73.8679 359.965 74.508 358.109 75.788C356.253 77.036 354.781 78.6999 353.693 80.7799C352.605 82.8279 352.061 85.068 352.061 87.5C352.061 89.9 352.605 92.14 353.693 94.22C354.781 96.268 356.253 97.916 358.109 99.164C359.965 100.412 362.045 101.036 364.349 101.036C366.013 101.036 367.597 100.684 369.101 99.98C370.605 99.244 371.901 98.268 372.989 97.052ZM392.214 111.5L392.166 63.5H403.878L403.926 67.772C405.558 66.044 407.51 64.684 409.782 63.692C412.054 62.668 414.502 62.1559 417.126 62.1559C418.886 62.1559 420.646 62.412 422.406 62.924L417.798 74.732C416.582 74.252 415.366 74.012 414.15 74.012C412.262 74.012 410.534 74.4759 408.966 75.4039C407.43 76.2999 406.198 77.5319 405.27 79.0999C404.374 80.6359 403.926 82.348 403.926 84.236V111.5H392.214ZM446.661 112.748C442.245 112.748 438.213 111.612 434.565 109.34C430.949 107.068 428.053 104.028 425.877 100.22C423.733 96.38 422.661 92.14 422.661 87.5C422.661 83.98 423.285 80.7 424.533 77.66C425.781 74.588 427.493 71.9 429.669 69.596C431.877 67.26 434.437 65.436 437.349 64.124C440.261 62.812 443.365 62.1559 446.661 62.1559C451.077 62.1559 455.093 63.292 458.709 65.564C462.357 67.836 465.253 70.892 467.397 74.732C469.573 78.572 470.661 82.828 470.661 87.5C470.661 90.988 470.037 94.252 468.789 97.292C467.541 100.332 465.813 103.02 463.605 105.356C461.429 107.66 458.885 109.468 455.973 110.78C453.093 112.092 449.989 112.748 446.661 112.748ZM446.661 101.036C448.997 101.036 451.093 100.412 452.949 99.164C454.805 97.916 456.261 96.268 457.317 94.22C458.405 92.172 458.949 89.932 458.949 87.5C458.949 85.004 458.389 82.7319 457.269 80.6839C456.181 78.6039 454.693 76.9559 452.805 75.7399C450.949 74.4919 448.901 73.8679 446.661 73.8679C444.357 73.8679 442.277 74.4919 440.421 75.7399C438.565 76.9879 437.093 78.652 436.005 80.732C434.917 82.812 434.373 85.068 434.373 87.5C434.373 90.028 434.933 92.3159 436.053 94.3639C437.173 96.4119 438.661 98.044 440.517 99.26C442.405 100.444 444.453 101.036 446.661 101.036Z" fill="#6EE7B7"/>
</svg>
