<svg width="158" height="157" viewBox="0 0 158 157" fill="none" xmlns="http://www.w3.org/2000/svg">
<path d="M90.5 135C90.5 124.757 88.4825 114.614 84.5626 105.151C80.6427 95.6873 74.8973 87.0886 67.6543 79.8457C60.4114 72.6027 51.8127 66.8573 42.3493 62.9374C32.8859 59.0175 22.7431 57 12.5 57C12.5 57 11.6999 64.5836 12.5 71.4247C13.145 76.9396 12.5 82 12.5 82C41.7711 82 65.5 105.729 65.5 135H90.5Z" fill="#059669"/>
<path fill-rule="evenodd" clip-rule="evenodd" d="M84.5626 51.8493C88.4824 42.3859 90.4999 32.2431 90.4999 22H77.9999H65.4999C65.4999 51.2711 41.771 75 12.4999 75L9.08585 81.85L12.4999 100C22.7431 100 32.8859 97.9825 42.3493 94.0626C51.8126 90.1427 60.4113 84.3973 67.6543 77.1543C74.8972 69.9114 80.6427 61.3127 84.5626 51.8493Z" fill="#6EE7B7"/>
<path fill-rule="evenodd" clip-rule="evenodd" d="M141.895 85.023L144.5 75C115.229 75 91.5 51.2711 91.5 22H79H66.5C66.5 32.2431 68.5175 42.3859 72.4374 51.8493C76.3573 61.3127 82.1027 69.9114 89.3457 77.1543C96.5887 84.3973 105.187 90.1427 114.651 94.0626C124.114 97.9825 134.257 100 144.5 100L141.895 85.023Z" fill="#059669"/>
<path fill-rule="evenodd" clip-rule="evenodd" d="M131.716 83.5522C110.362 88.841 94.1156 107.077 91.7873 129.45C89.4916 132.605 68.3625 134.49 66.6899 129.563C67.2756 121.181 69.2129 112.936 72.4376 105.151C76.3575 95.6874 82.1029 87.0887 89.3459 79.8458C96.5888 72.6028 105.187 66.8574 114.651 62.9375C118.979 61.1447 123.449 59.7498 128.006 58.7639C128.006 58.7639 135.795 64.161 136.917 70.2663C137.95 75.885 131.716 83.5522 131.716 83.5522Z" fill="#6EE7B7"/>
<path fill-rule="evenodd" clip-rule="evenodd" d="M156.994 78C156.867 68.0972 154.855 58.306 151.063 49.1507C147.143 39.6873 141.397 31.0886 134.154 23.8457C126.911 16.6027 118.313 10.8573 108.849 6.9374C99.3859 3.01753 89.2431 1 79 1C68.7569 0.999999 58.6141 3.01753 49.1507 6.9374C39.6873 10.8573 31.0886 16.6027 23.8457 23.8457C16.6027 31.0886 10.8573 39.6873 6.9374 49.1507C3.14514 58.306 1.13337 68.0972 1.00641 78H1C1 78.1667 1.00053 78.3334 1.0016 78.5C1.00053 78.6666 1 78.8333 1 79H1.00641C1.13337 88.9027 3.14514 98.694 6.9374 107.849C10.8573 117.313 16.6027 125.911 23.8457 133.154C31.0886 140.397 39.6873 146.143 49.1507 150.063C58.6141 153.982 68.7569 156 79 156C89.2431 156 99.3859 153.982 108.849 150.063C118.313 146.143 126.911 140.397 134.154 133.154C141.397 125.911 147.143 117.313 151.063 107.849C154.855 98.694 156.867 88.9027 156.994 79H157C157 78.8333 156.999 78.6666 156.998 78.5C156.999 78.3334 157 78.1667 157 78H156.994ZM131.998 78.4999C131.729 49.4591 108.104 26 79 26C49.8958 26 26.2707 49.4592 26.0023 78.5C26.2707 107.541 49.8958 131 79 131C108.104 131 131.729 107.541 131.998 78.4999Z" fill="#6EE7B7"/>
</svg>
